<?xml version="1.0" encoding="utf-8"?>
<!-- Generator: Adobe Illustrator 24.2.1, SVG Export Plug-In . SVG Version: 6.00 Build 0)  -->
<svg version="1.1" xmlns="http://www.w3.org/2000/svg" xmlns:xlink="http://www.w3.org/1999/xlink" x="0px" y="0px"
	 viewBox="0 0 814 814" style="enable-background:new 0 0 814 814;" xml:space="preserve">
<style type="text/css">
	.st0{opacity:0.5;}
	.st1{fill:#231F20;stroke:#5C719F;stroke-miterlimit:10;}
	.st2{opacity:0.75;fill:#231F20;stroke:#5C719F;stroke-miterlimit:10;enable-background:new    ;}
</style>
<g id="Logo">
	<g transform="translate(0.000000,814.000000) scale(0.100000,-0.100000)">
		<path d="M4760,6611c0-233-4-412-9-415s-33,10-63,30c-168,115-372,162-613,142c-446-37-742-331-831-823c-26-149-24-416,5-552
			c75-356,249-596,523-722c106-49,179-68,300-79c508-47,885,238,1016,766l26,107l3,978l4,977h-181h-180V6611z M4303,6055
			c91-24,136-52,222-139c165-165,233-381,222-694c-9-256-81-443-225-588c-140-142-353-186-548-113c-213,80-364,351-381,684
			c-21,421,165,773,448,849C4112,6073,4232,6074,4303,6055z"/>
		<path d="M7535,7010c-204-45-348-189-391-388c-18-85-17-141,1-220c60-255,304-422,561-385c274,39,465,294,426,568
			c-36,245-226,419-472,430C7613,7017,7557,7015,7535,7010z M7741,6894c111-33,203-115,256-230c24-51,28-72,28-149c0-80-3-97-32-157
			c-18-39-53-89-81-117c-160-160-396-159-557,3c-72,72-107,148-113,246C7227,6758,7487,6969,7741,6894z"/>
		<path d="M438,6952l-168-56l-2-256l-3-255l-127-3l-128-3v-154v-154l128-3l127-3l5-720c5-660,6-724,23-765c62-155,164-252,320-305
			c72-24,86-25,306-25h231v150v150H973c-151,0-184,3-218,19c-51,23-101,80-115,130c-7,26-9,263-8,702l3,664l543,3l542,2v155v155
			l-542,2l-543,3l-3,313c-2,240-5,312-15,311C611,7009,530,6983,438,6952z"/>
		<path d="M1870,6225v-155h348h349l46-31c75-50,87-86,87-271v-156l-297-5c-342-5-378-11-542-93c-76-38-110-62-176-128
			c-89-89-131-154-167-261c-20-60-23-90-23-215c0-116,4-156,19-200c81-237,246-387,511-465c74-22,111-27,210-28
			c178-1,302,40,410,135c25,22,49,37,55,33c5-3,10-35,10-71v-64h180h180v848c0,933,2,905-62,1024c-65,122-219,227-363,248
			c-38,5-229,10-422,10h-353V6225z M2698,5063c2-227,1-245-19-299c-42-112-162-207-297-235c-93-19-237-8-307,25
			c-80,37-120,68-160,129c-72,109-84,266-30,386c51,113,179,208,308,230c29,5,153,8,277,7l225-1L2698,5063z"/>
		<path d="M6140,6369c-420-29-722-297-825-734c-37-157-48-419-25-575c58-383,244-663,526-791c255-116,603-110,849,14
			c159,80,280,202,373,377c189,354,183,915-12,1265C6849,6240,6539,6395,6140,6369z M6345,6055c80-21,133-49,200-104
			c275-228,354-750,170-1123c-71-143-159-235-284-296c-75-37-77-37-201-37c-147,0-200,17-301,92c-354,266-390,979-67,1319
			c37,38,91,83,120,99C6095,6067,6229,6085,6345,6055z"/>
	</g>
</g>
<g id="Geofencing">
	
		<image style="display:none;overflow:visible;" width="1920" height="1121" xlink:href="CA3D83DD.jpg"  transform="matrix(0.4234 0 0 0.3675 1 402)">
	</image>
	<g class="st0">
		<path class="st1" d="M436.5,732.5h-77.7c-3.6-0.2-6.5-3.4-6.7-7.4v-14.8c0.3-4,3.3-7.2,6.9-7.4h77.7c3.6,0.3,6.5,3.4,6.7,7.4v14.8
			C443.2,729.1,440.2,732.3,436.5,732.5z"/>
	</g>
	<path class="st1" d="M397.1,714.1c-5.5,0.2-10.7-2.7-13.8-7.6c-37.1-53.5-55.2-94-63.6-118.8c-4-10.8-6.9-22.1-8.5-33.6
		c-1-4.7-1.3-9.5-1.2-14.4c0-58.8,38.3-106.5,85.6-106.7s86.7,47.8,86.7,106.3V553c-1,12.1-3.9,23.9-8.5,34.9
		c-8.8,25.6-27.1,67.4-63.4,118.8C408.3,709.2,403.3,714.1,397.1,714.1z M395.6,445.5c-41,0-74.2,42.3-74.2,94.3
		c-0.2,4,0.1,8.1,1,12c1.4,10.8,4,21.4,7.7,31.5c8.5,23.9,26,63.4,62.5,115.8c0.9,1.8,2.7,2.8,4.6,2.5c1.9-0.4,3.7-1.5,5-3.2
		c35-49.5,52.9-90.2,61.5-115.4c4.2-9.6,6.8-20,7.5-30.6v-13.1C471,487.5,437.1,445.5,395.6,445.5z"/>
	<path class="st2" d="M397.1,776c-69.4,0-126.1-25.4-126.1-56.8c0-27.1,36.7-49,91.7-54.5c3.1-0.4,5.8,2.1,6.1,5.4
		c0,0.1,0,0.2,0,0.3c0.2,3.4-2.1,6.3-5.2,6.5c0,0,0,0,0,0c-46.3,4.6-81.5,22.8-81.5,42.3c0,19.4,49.2,44.6,115,44.4
		c65.8-0.2,113.6-23.7,113.6-44.8c0-15.4-27.1-35.5-77.3-41.8c-3.1-0.4-5.2-3.5-4.8-6.9c0,0,0-0.1,0-0.1c0.3-3.4,3-5.8,6.1-5.5
		c0,0,0,0,0.1,0c52.1,6.8,87.3,28.5,87.3,54.3C522.1,755.7,457.7,775.8,397.1,776z"/>
	<path class="st2" d="M396.9,591.3c-22.9,0-41.5-22.6-41.5-50.5s18.5-51.8,41.3-51.8c22.9,0,41.5,22.6,41.5,50.5
		C438.3,567.4,419,591.3,396.9,591.3z M396.7,496c-19.4,0-35,20.1-35,44.8s15.8,43.5,35.2,43.5s35-20.9,35-44.8S416.2,496,396.7,496
		z"/>
</g>
</svg>
